<?xml version="1.0" encoding="utf-8"?>
<!-- Generator: Adobe Illustrator 26.1.0, SVG Export Plug-In . SVG Version: 6.00 Build 0)  -->
<svg version="1.1" id="katman_1" xmlns="http://www.w3.org/2000/svg" xmlns:xlink="http://www.w3.org/1999/xlink" x="0px" y="0px"
	 viewBox="0 0 362.09 152.35" style="enable-background:new 0 0 362.09 152.35;" xml:space="preserve">
<style type="text/css">
	.st0{fill:#0B4F99;}
	.st1{fill:#2D2E83;}
</style>
<g>
	<path class="st0" d="M298.32,29.46h-114.8v93.52h114.8c12.06,0,22.98-5.23,30.88-13.69c7.9-8.46,12.8-20.16,12.8-33.07
		C342,50.4,322.44,29.46,298.32,29.46z M322.32,101.95c-6.13,6.57-14.6,10.63-23.96,10.63H193.25V40.02h105.11
		c18.72,0,33.89,16.24,33.89,36.28C332.25,86.32,328.46,95.39,322.32,101.95z"/>
	<path class="st0" d="M118.39,72.31v8.05c0,3.51-1.02,4.34-4.6,4.34h-9.77c-3.84,0-4.67-0.83-4.67-4.34v-8.05
		c0-3.39,0.84-4.41,4.67-4.41h9.8C117.4,67.9,118.39,68.92,118.39,72.31z"/>
	<path class="st0" d="M80.65,67.93H64.93v8.38h15.76c3.91,0,5.03-0.66,5.03-3.6v-1.47C85.72,68.29,84.62,67.93,80.65,67.93z
		 M80.65,67.93H64.93v8.38h15.76c3.91,0,5.03-0.66,5.03-3.6v-1.47C85.72,68.29,84.62,67.93,80.65,67.93z M66.85,29.37
		c-25.82,0-46.76,20.93-46.76,46.76c0,12.91,5.23,24.6,13.7,33.06c8.46,8.47,20.15,13.7,33.06,13.7h111.72V29.37H66.85z
		 M67.31,112.48c-10.02,0-19.09-4.06-25.66-10.62c-6.56-6.57-10.62-15.63-10.62-25.65v-0.06c0.03-20.01,16.26-36.22,36.28-36.22
		h41.56v10.52H67.28c-14.2,0-25.71,11.51-25.71,25.7c0,7.1,2.88,13.52,7.53,18.18c4.65,4.64,11.08,7.52,18.18,7.52h41.59l0.01,10.63
		H67.31z M64.93,89.89l-5.2,0.04V62.72h21.32c7.61,0,9.88,1.67,9.88,8.2v1.85c0,6.34-2.52,8.75-9.95,8.75l-2.89-0.05l13.21,8.46
		h-9.61L64.91,79.24L64.93,89.89z M123.61,80.53c0,6.9-1.51,9.35-9.56,9.35H103.7c-7.99,0-9.54-2.43-9.54-9.33v-8.5
		c0-6.84,1.55-9.33,9.54-9.33h10.35c8.05,0,9.56,2.49,9.56,9.33V80.53z M168.02,89.93l-5.21-0.04V71.65l-12.86,17.08
		c-0.62,0.79-1.35,1.16-2.52,1.16c-1.16,0-1.94-0.41-2.56-1.2l-12.83-17.04v18.24h-5.21l0.01-24.84c0-1.6,1.35-2.33,3.19-2.33
		c1.35,0,2.08,0.31,2.7,1.23l14.7,19.48l14.75-19.61c0.68-0.85,1.37-1.1,2.72-1.1c1.71,0,3.12,0.73,3.12,2.33V89.93z M85.72,72.71
		v-1.47c0-2.95-1.1-3.31-5.07-3.31H64.93v8.38h15.76C84.6,76.31,85.72,75.65,85.72,72.71z M80.65,67.93H64.93v8.38h15.76
		c3.91,0,5.03-0.66,5.03-3.6v-1.47C85.72,68.29,84.62,67.93,80.65,67.93z M80.65,67.93H64.93v8.38h15.76c3.91,0,5.03-0.66,5.03-3.6
		v-1.47C85.72,68.29,84.62,67.93,80.65,67.93z"/>
	<path class="st0" d="M201.49,62.67v5.21h11.86v21.96h5.21V67.89h11.87v-5.21H201.49z"/>
	<path class="st0" d="M289.82,62.59v5.21h11.86v21.96h5.21V67.81h11.87v-5.21H289.82z"/>
	<path class="st0" d="M244,84.63c-3.55,0-5.13-0.63-5.13-3.9v-1.87h24l0-5.21h-24v-1.59c0-3.16,1.65-4.17,5.14-4.17h6.71l0-5.21
		h-6.71c-8.04,0-10.37,2.44-10.37,9.32v8.54c0,6.88,2.33,9.32,10.37,9.32l18.85,0v-5.21L244,84.63z"/>
	<path class="st0" d="M287.09,73.57h-12.72c-1.94,0-3.07-0.55-3.07-2.27v-0.87c0-2.11,1.16-2.63,2.99-2.63h8.04l0-5.21h-8.48
		c-5.49,0-7.76,2.11-7.76,7.71v1.31c0,4.66,1.64,7.17,7.74,7.17h12.96c2.11,0,3.1,0.33,3.1,2.05v1.5c0,1.83-0.95,2.22-3.11,2.22
		h-20.68l0,5.21h21.02c6.04,0,7.98-2,7.98-7.04v-2.16C295.08,75.68,293.13,73.57,287.09,73.57z"/>
</g>
<rect x="382.09" class="st1" width="362.09" height="152.35"/>
<rect x="382.09" y="-165.45" class="st1" width="362.09" height="152.35"/>
</svg>
