<?xml version="1.0" encoding="utf-8"?>
<!-- Generator: Adobe Illustrator 26.1.0, SVG Export Plug-In . SVG Version: 6.00 Build 0)  -->
<svg version="1.1" id="katman_1" xmlns="http://www.w3.org/2000/svg" xmlns:xlink="http://www.w3.org/1999/xlink" x="0px" y="0px"
	 viewBox="0 0 226.77 368.5" style="enable-background:new 0 0 226.77 368.5;" xml:space="preserve">
<style type="text/css">
	.st0{fill:#1A6BBF;stroke:#1A6BBF;stroke-miterlimit:10;}
	.st1{fill:#1A6BBF;stroke:#1A6BBF;stroke-width:0.2798;stroke-miterlimit:10;}
	.st2{fill:#EAF3F8;stroke:#EAF3F8;stroke-width:1.5;stroke-miterlimit:10;}
	.st3{fill:#1A6BBF;}
	.st4{fill:#FFFFFF;}
	.st5{fill:url(#SVGID_1_);stroke:#032046;stroke-miterlimit:10;}
	.st6{fill:none;stroke:#032046;stroke-width:2.5;stroke-miterlimit:10;}
	.st7{fill:none;stroke:#032046;stroke-width:1.3043;stroke-miterlimit:10;}
	.st8{fill:url(#SVGID_00000007401275396999314330000012662892982328520873_);stroke:#032046;stroke-miterlimit:10;}
	.st9{fill:url(#SVGID_00000016776390068271570270000001904935634414171554_);stroke:#032046;stroke-miterlimit:10;}
	.st10{fill:url(#SVGID_00000025417755867522228770000007205610079581498544_);stroke:#032046;stroke-miterlimit:10;}
	.st11{fill:url(#SVGID_00000054262336202665447730000006161209025878842280_);stroke:#032046;stroke-miterlimit:10;}
	.st12{fill:none;stroke:#1A6BBF;stroke-width:1.5;stroke-miterlimit:10;}
	.st13{fill:none;stroke:#1D1D1B;stroke-width:0.6923;stroke-miterlimit:10;}
	.st14{fill:none;stroke:#1D1D1B;stroke-width:0.7403;stroke-miterlimit:10;}
	.st15{fill:none;stroke:#000000;stroke-width:0.6923;stroke-miterlimit:10;}
	.st16{fill:none;stroke:#1D1D1B;stroke-width:0.9438;stroke-miterlimit:10;}
	.st17{fill-rule:evenodd;clip-rule:evenodd;fill:#FFFFFF;stroke:#000000;stroke-width:0.4615;stroke-miterlimit:10;}
	.st18{fill-rule:evenodd;clip-rule:evenodd;fill:#FFFFFF;stroke:#000000;stroke-width:0.2308;stroke-miterlimit:10;}
	.st19{fill-rule:evenodd;clip-rule:evenodd;fill:none;stroke:#000000;stroke-width:0.6923;stroke-miterlimit:10;}
	.st20{fill-rule:evenodd;clip-rule:evenodd;fill:#FFFFFF;stroke:#000000;stroke-width:0.6923;stroke-miterlimit:10;}
	.st21{fill-rule:evenodd;clip-rule:evenodd;fill:#E30613;}
	
		.st22{fill-rule:evenodd;clip-rule:evenodd;fill:none;stroke:#000000;stroke-width:0.4615;stroke-linecap:round;stroke-linejoin:round;stroke-miterlimit:22.9256;}
	.st23{fill-rule:evenodd;clip-rule:evenodd;fill:#E76B5D;}
	.st24{fill:none;stroke:#000000;stroke-width:0.4615;stroke-linecap:round;stroke-linejoin:round;stroke-miterlimit:22.9256;}
	.st25{fill:#004F97;}
	.st26{fill:none;stroke:#1D1D1B;stroke-width:0.8159;stroke-miterlimit:10;}
	.st27{fill-rule:evenodd;clip-rule:evenodd;fill:#FFFFFF;stroke:#000000;stroke-width:0.3989;stroke-miterlimit:10;}
	.st28{fill-rule:evenodd;clip-rule:evenodd;fill:#FFFFFF;stroke:#000000;stroke-width:0.1995;stroke-miterlimit:10;}
	.st29{fill-rule:evenodd;clip-rule:evenodd;fill:#FFFFFF;stroke:#000000;stroke-width:0.5984;stroke-miterlimit:10;}
	
		.st30{fill-rule:evenodd;clip-rule:evenodd;fill:none;stroke:#000000;stroke-width:0.3989;stroke-linecap:round;stroke-linejoin:round;stroke-miterlimit:22.9256;}
	.st31{fill:none;stroke:#000000;stroke-width:0.3989;stroke-linecap:round;stroke-linejoin:round;stroke-miterlimit:22.9256;}
	.st32{opacity:0.95;fill:none;stroke:#000000;stroke-width:0.6923;stroke-miterlimit:10;}
	.st33{fill:none;stroke:#1D1D1B;stroke-width:0.7006;stroke-miterlimit:10;}
	.st34{fill:none;stroke:#1D1D1B;stroke-width:0.7492;stroke-miterlimit:10;}
	.st35{fill:none;stroke:#000000;stroke-width:0.7006;stroke-miterlimit:10;}
	.st36{fill:none;stroke:#1D1D1B;stroke-width:0.9552;stroke-miterlimit:10;}
	.st37{fill-rule:evenodd;clip-rule:evenodd;fill:#FFFFFF;stroke:#000000;stroke-width:0.4671;stroke-miterlimit:10;}
	.st38{fill-rule:evenodd;clip-rule:evenodd;fill:#FFFFFF;stroke:#000000;stroke-width:0.2335;stroke-miterlimit:10;}
	.st39{fill-rule:evenodd;clip-rule:evenodd;fill:none;stroke:#000000;stroke-width:0.7006;stroke-miterlimit:10;}
	.st40{fill-rule:evenodd;clip-rule:evenodd;fill:#FFFFFF;stroke:#000000;stroke-width:0.7006;stroke-miterlimit:10;}
	
		.st41{fill-rule:evenodd;clip-rule:evenodd;fill:none;stroke:#000000;stroke-width:0.4671;stroke-linecap:round;stroke-linejoin:round;stroke-miterlimit:22.9256;}
	.st42{fill:none;stroke:#000000;stroke-width:0.4671;stroke-linecap:round;stroke-linejoin:round;stroke-miterlimit:22.9256;}
	.st43{opacity:0.95;fill:none;stroke:#000000;stroke-width:0.7006;stroke-miterlimit:10;}
	.st44{fill:#0153A6;stroke:#0153A6;stroke-width:0.2798;stroke-miterlimit:10;}
	.st45{fill:none;stroke:#4B7F0E;stroke-width:1.5;stroke-miterlimit:10;}
	.st46{fill:none;stroke:#FF0000;stroke-width:1.5;stroke-miterlimit:10;}
	.st47{fill:none;stroke:#000000;stroke-width:1.5;stroke-miterlimit:10;}
	
		.st48{fill-rule:evenodd;clip-rule:evenodd;fill:none;stroke:#000000;stroke-width:1.6605;stroke-linecap:round;stroke-linejoin:round;stroke-miterlimit:22.9256;}
	.st49{fill:none;stroke:#000000;stroke-miterlimit:10;}
	.st50{fill:none;stroke:#000000;stroke-width:1.0406;stroke-miterlimit:10;}
	.st51{fill:#2886CF;stroke:#000000;stroke-width:1.0406;stroke-miterlimit:10;}
	.st52{fill:none;stroke:#000000;stroke-width:1.0727;stroke-miterlimit:10;}
	.st53{fill:none;stroke:#000000;stroke-width:1.0461;stroke-miterlimit:10;}
	.st54{opacity:0.69;fill:url(#SVGID_00000031899506544342567180000008829582150613153667_);}
	.st55{opacity:0.86;fill:url(#SVGID_00000174597689314661361170000004045310268809192857_);}
	.st56{opacity:0.46;fill:url(#SVGID_00000180328346645453837020000010590936798641311624_);}
	.st57{fill:#2886CF;}
	.st58{fill:#2886CF;stroke:#3C73AF;stroke-miterlimit:10;}
	.st59{fill:#3C73AF;}
	.st60{opacity:0.69;fill:url(#SVGID_00000012438953033690727890000017454838685845389483_);}
	.st61{opacity:0.86;fill:url(#SVGID_00000044858789802752692450000007964691031312155777_);}
	.st62{opacity:0.46;fill:url(#SVGID_00000163791173227143988070000004672646993564731539_);}
	.st63{fill:none;stroke:#032248;stroke-miterlimit:10;}
	.st64{fill:#1A6BBF;stroke:#032248;stroke-miterlimit:10;}
	.st65{opacity:0.69;fill:url(#SVGID_00000158707510562190743110000012509923704040172189_);}
	.st66{opacity:0.86;fill:url(#SVGID_00000164477952761035580960000011061716163957052545_);}
	.st67{opacity:0.46;fill:url(#SVGID_00000152986802474003125270000003681924705096310459_);}
	.st68{fill:#1A6BBF;stroke:#3C73AF;stroke-miterlimit:10;}
	.st69{fill-rule:evenodd;clip-rule:evenodd;fill:#FFFFFF;}
	.st70{opacity:0.5;fill:#FFFFFF;stroke:#000000;stroke-width:0.75;stroke-miterlimit:10;}
	.st71{display:none;fill:none;stroke:#000000;stroke-width:0.75;stroke-miterlimit:10;}
	.st72{opacity:0.86;fill:url(#SVGID_00000042008989167524264230000004678909684680013747_);}
	.st73{opacity:0.46;fill:url(#SVGID_00000132807136817933805020000017948275950632661177_);}
	.st74{fill:none;stroke:#000000;stroke-width:0.75;stroke-miterlimit:10;}
</style>
<g>
	<path class="st63" d="M41.52,201.6l11.82,133.56c0,9.67,29.06,17.51,64.91,17.51s64.91-7.83,64.91-17.51l9.94-132.81"/>
	<path class="st50" d="M202.04,160.05c0,6.38-13.78,12.04-34.98,15.52c-13.96,2.31-31.14,3.66-49.73,3.66
		c-18.41,0-35.44-1.32-49.33-3.6c-21.43-3.46-35.39-9.16-35.39-15.58c0-10.59,37.93-19.18,84.71-19.18S202.04,149.46,202.04,160.05z
		"/>
	<path class="st64" d="M202.47,190.1c0,2.9-3.29,5.65-9.14,8.08c-13.98,5.82-42.58,9.79-75.58,9.79c-32.88,0-61.38-3.95-75.42-9.73
		c-0.56-0.22-1.08-0.46-1.59-0.69c-4.94-2.27-7.7-4.8-7.7-7.45l-0.43-30.06c0,6.42,13.96,12.12,35.39,15.58
		c13.88,2.27,30.92,3.6,49.33,3.6c18.59,0,35.77-1.35,49.73-3.66c21.2-3.48,34.98-9.14,34.98-15.52L202.47,190.1z"/>
	<path class="st63" d="M193.34,198.18c0.24-0.1,0.48-0.16,0.76-0.16c1.09,0,1.96,0.88,1.96,1.96c0,0.56-0.24,1.07-0.61,1.42
		c-0.44,0.18-0.89,0.35-1.35,0.54c-0.33,0.13-0.67,0.26-1.01,0.39c-19.3,7.36-45.72,11.9-74.84,11.9
		c-30.08,0-57.27-4.84-76.73-12.64c-0.13-0.04-0.26-0.1-0.39-0.16c-0.61-0.25-1.23-0.5-1.83-0.76c-0.26-0.33-0.41-0.73-0.41-1.18
		c0-1.05,0.82-1.91,1.86-1.95c-4.94-2.27-7.7-4.8-7.7-7.45l-0.43-30.06c0-10.59,37.93-19.18,84.71-19.18s84.71,8.59,84.71,19.18
		l0.43,30.06C202.47,193.01,199.18,195.75,193.34,198.18z"/>
	<path class="st63" d="M39.29,200.68c-0.26-0.33-0.41-0.73-0.41-1.18c0-1.05,0.82-1.91,1.86-1.95"/>
	<path class="st63" d="M193.34,198.18c0.24-0.1,0.48-0.16,0.76-0.16c1.09,0,1.96,0.88,1.96,1.96c0,0.56-0.24,1.07-0.61,1.42"/>
	<path class="st63" d="M57.88,332.61c0-8.01,27.03-14.51,60.36-14.51s60.36,6.5,60.36,14.51"/>
	<linearGradient id="SVGID_1_" gradientUnits="userSpaceOnUse" x1="51.7376" y1="268.3116" x2="182.6974" y2="268.3116">
		<stop  offset="0.0712" style="stop-color:#F5D252"/>
		<stop  offset="0.0888" style="stop-color:#F6D558"/>
		<stop  offset="0.1113" style="stop-color:#F7DC67"/>
		<stop  offset="0.1365" style="stop-color:#FAE882"/>
		<stop  offset="0.1634" style="stop-color:#FEF9A6"/>
		<stop  offset="0.1719" style="stop-color:#FFFFB3"/>
		<stop  offset="0.1811" style="stop-color:#FEFAA8"/>
		<stop  offset="0.2079" style="stop-color:#FBEE8D"/>
		<stop  offset="0.2388" style="stop-color:#F9E377"/>
		<stop  offset="0.2748" style="stop-color:#F7DC66"/>
		<stop  offset="0.3194" style="stop-color:#F6D65B"/>
		<stop  offset="0.3819" style="stop-color:#F5D354"/>
		<stop  offset="0.5556" style="stop-color:#F5D252"/>
		<stop  offset="0.6068" style="stop-color:#F5D355"/>
		<stop  offset="0.6399" style="stop-color:#F6D75D"/>
		<stop  offset="0.668" style="stop-color:#F8DE6C"/>
		<stop  offset="0.6932" style="stop-color:#FAE881"/>
		<stop  offset="0.7163" style="stop-color:#FDF49C"/>
		<stop  offset="0.7318" style="stop-color:#FFFFB3"/>
		<stop  offset="0.7567" style="stop-color:#FCF399"/>
		<stop  offset="0.8" style="stop-color:#F8E173"/>
		<stop  offset="0.8345" style="stop-color:#F6D65B"/>
		<stop  offset="0.8559" style="stop-color:#F5D252"/>
	</linearGradient>
	<ellipse style="opacity:0.69;fill:url(#SVGID_1_);" cx="117.22" cy="268.31" rx="65.48" ry="12.73"/>
	
		<linearGradient id="SVGID_00000026865804945538434110000012803834626976442000_" gradientUnits="userSpaceOnUse" x1="51.7795" y1="307.9207" x2="182.669" y2="307.9207">
		<stop  offset="0.0712" style="stop-color:#F5D252"/>
		<stop  offset="0.0888" style="stop-color:#F6D558"/>
		<stop  offset="0.1113" style="stop-color:#F7DC67"/>
		<stop  offset="0.1365" style="stop-color:#FAE882"/>
		<stop  offset="0.1634" style="stop-color:#FEF9A6"/>
		<stop  offset="0.1719" style="stop-color:#FFFFB3"/>
		<stop  offset="0.1811" style="stop-color:#FEFAA8"/>
		<stop  offset="0.2079" style="stop-color:#FBEE8D"/>
		<stop  offset="0.2388" style="stop-color:#F9E377"/>
		<stop  offset="0.2748" style="stop-color:#F7DC66"/>
		<stop  offset="0.3194" style="stop-color:#F6D65B"/>
		<stop  offset="0.3819" style="stop-color:#F5D354"/>
		<stop  offset="0.5556" style="stop-color:#F5D252"/>
		<stop  offset="0.6068" style="stop-color:#F5D355"/>
		<stop  offset="0.6399" style="stop-color:#F6D75D"/>
		<stop  offset="0.668" style="stop-color:#F8DE6C"/>
		<stop  offset="0.6932" style="stop-color:#FAE881"/>
		<stop  offset="0.7163" style="stop-color:#FDF49C"/>
		<stop  offset="0.7318" style="stop-color:#FFFFB3"/>
		<stop  offset="0.7567" style="stop-color:#FCF399"/>
		<stop  offset="0.8" style="stop-color:#F8E173"/>
		<stop  offset="0.8345" style="stop-color:#F6D65B"/>
		<stop  offset="0.8559" style="stop-color:#F5D252"/>
	</linearGradient>
	<path style="opacity:0.86;fill:url(#SVGID_00000026865804945538434110000012803834626976442000_);" d="M182.67,268.64l-4.07,64.02
		c0,8.04-27.02,14.55-60.36,14.55s-60.37-6.51-60.37-14.55l-6.09-63.97c1.02,6.86,29.92,12.35,65.43,12.35
		C152.82,281.04,181.78,275.53,182.67,268.64z"/>
	
		<linearGradient id="SVGID_00000155115209189709338470000015350217475263563153_" gradientUnits="userSpaceOnUse" x1="51.7405" y1="268.3087" x2="182.6952" y2="268.3087">
		<stop  offset="0.0712" style="stop-color:#F5D252"/>
		<stop  offset="0.0888" style="stop-color:#F6D558"/>
		<stop  offset="0.1113" style="stop-color:#F7DC67"/>
		<stop  offset="0.1365" style="stop-color:#FAE882"/>
		<stop  offset="0.1634" style="stop-color:#FEF9A6"/>
		<stop  offset="0.1719" style="stop-color:#FFFFB3"/>
		<stop  offset="0.1811" style="stop-color:#FEFAA8"/>
		<stop  offset="0.2079" style="stop-color:#FBEE8D"/>
		<stop  offset="0.2388" style="stop-color:#F9E377"/>
		<stop  offset="0.2748" style="stop-color:#F7DC66"/>
		<stop  offset="0.3194" style="stop-color:#F6D65B"/>
		<stop  offset="0.3819" style="stop-color:#F5D354"/>
		<stop  offset="0.5556" style="stop-color:#F5D252"/>
		<stop  offset="0.6068" style="stop-color:#F5D355"/>
		<stop  offset="0.6399" style="stop-color:#F6D75D"/>
		<stop  offset="0.668" style="stop-color:#F8DE6C"/>
		<stop  offset="0.6932" style="stop-color:#FAE881"/>
		<stop  offset="0.7163" style="stop-color:#FDF49C"/>
		<stop  offset="0.7318" style="stop-color:#FFFFB3"/>
		<stop  offset="0.7567" style="stop-color:#FCF399"/>
		<stop  offset="0.8" style="stop-color:#F8E173"/>
		<stop  offset="0.8345" style="stop-color:#F6D65B"/>
		<stop  offset="0.8559" style="stop-color:#F5D252"/>
	</linearGradient>
	<path style="opacity:0.46;fill:url(#SVGID_00000155115209189709338470000015350217475263563153_);" d="M182.7,268.31l-0.03,0.33
		c-0.89,6.89-29.85,12.41-65.46,12.41c-35.51,0-64.41-5.49-65.43-12.35l-0.04-0.38c0-7.03,29.31-12.73,65.47-12.73
		C153.39,255.58,182.7,261.28,182.7,268.31z"/>
	<ellipse class="st3" cx="117.3" cy="160.05" rx="84.08" ry="18.42"/>
	<ellipse class="st68" cx="118.5" cy="160.05" rx="72.39" ry="14.84"/>
	<g>
		<path class="st59" d="M40.8,173.74c0.95,4.55,1.01,9.11,0.65,13.69c-0.13,1.35-0.33,3.25-0.65,4.56c0,0-0.1,0-0.1,0
			c-0.05-4.55-0.05-13.71,0-18.25C40.7,173.74,40.8,173.74,40.8,173.74L40.8,173.74z"/>
	</g>
	<g>
		<path class="st59" d="M50.69,177.55c0.95,4.55,1.01,9.11,0.65,13.69c-0.13,1.35-0.33,3.25-0.65,4.56c0,0-0.1,0-0.1,0
			c-0.05-4.55-0.05-13.71,0-18.25C50.59,177.55,50.69,177.55,50.69,177.55L50.69,177.55z"/>
	</g>
	<g>
		<path class="st59" d="M61.96,180.12c0.95,4.55,1.01,9.11,0.65,13.69c-0.13,1.35-0.33,3.25-0.65,4.56c0,0-0.1,0-0.1,0
			c-0.05-4.55-0.05-13.71,0-18.25C61.86,180.12,61.96,180.12,61.96,180.12L61.96,180.12z"/>
	</g>
	<g>
		<path class="st59" d="M73.24,182.87c0.95,4.55,1.01,9.11,0.65,13.69c-0.13,1.35-0.33,3.25-0.65,4.56c0,0-0.1,0-0.1,0
			c-0.05-4.55-0.05-13.71,0-18.25C73.14,182.87,73.24,182.87,73.24,182.87L73.24,182.87z"/>
	</g>
	<g>
		<path class="st59" d="M85.23,184.69c0.95,4.55,1.01,9.11,0.65,13.69c-0.13,1.35-0.33,3.25-0.65,4.56c0,0-0.1,0-0.1,0
			c-0.05-4.55-0.05-13.71,0-18.25C85.13,184.69,85.23,184.69,85.23,184.69L85.23,184.69z"/>
	</g>
	<g>
		<path class="st59" d="M99.21,185.38c0.95,4.55,1.01,9.11,0.65,13.69c-0.13,1.35-0.33,3.25-0.65,4.56c0,0-0.1,0-0.1,0
			c-0.05-4.55-0.05-13.71,0-18.25C99.11,185.38,99.21,185.38,99.21,185.38L99.21,185.38z"/>
	</g>
	<g>
		<path class="st59" d="M113.71,185.38c0.95,4.55,1.01,9.11,0.65,13.69c-0.13,1.35-0.33,3.25-0.65,4.56c0,0-0.1,0-0.1,0
			c-0.05-4.55-0.05-13.71,0-18.25C113.61,185.38,113.71,185.38,113.71,185.38L113.71,185.38z"/>
	</g>
	<g>
		<path class="st59" d="M127.68,185.38c0.95,4.55,1.01,9.11,0.65,13.69c-0.13,1.35-0.33,3.25-0.65,4.56c0,0-0.1,0-0.1,0
			c-0.05-4.55-0.05-13.71,0-18.25C127.58,185.38,127.68,185.38,127.68,185.38L127.68,185.38z"/>
	</g>
	<g>
		<path class="st59" d="M140.99,184.69c0.95,4.55,1.01,9.11,0.65,13.69c-0.13,1.35-0.33,3.25-0.65,4.56c0,0-0.1,0-0.1,0
			c-0.05-4.55-0.05-13.71,0-18.25C140.89,184.69,140.99,184.69,140.99,184.69L140.99,184.69z"/>
	</g>
	<g>
		<path class="st59" d="M155.48,184.01c0.95,4.55,1.01,9.11,0.65,13.69c-0.13,1.35-0.33,3.25-0.65,4.56c0,0-0.1,0-0.1,0
			c-0.05-4.55-0.05-13.71,0-18.25C155.38,184.01,155.48,184.01,155.48,184.01L155.48,184.01z"/>
	</g>
	<g>
		<path class="st59" d="M168.44,181.29c0.95,4.55,1.01,9.11,0.65,13.69c-0.13,1.35-0.33,3.25-0.65,4.56c0,0-0.1,0-0.1,0
			c-0.05-4.55-0.05-13.71,0-18.25C168.34,181.29,168.44,181.29,168.44,181.29L168.44,181.29z"/>
	</g>
	<g>
		<path class="st59" d="M180.38,178.77c0.95,4.55,1.01,9.11,0.65,13.69c-0.13,1.35-0.33,3.25-0.65,4.56c0,0-0.1,0-0.1,0
			c-0.05-4.55-0.05-13.71,0-18.25C180.28,178.77,180.38,178.77,180.38,178.77L180.38,178.77z"/>
	</g>
	<g>
		<path class="st59" d="M190.93,176.25c0.95,4.55,1.01,9.11,0.65,13.69c-0.13,1.35-0.33,3.25-0.65,4.56c0,0-0.1,0-0.1,0
			c-0.05-4.55-0.05-13.71,0-18.25C190.83,176.25,190.93,176.25,190.93,176.25L190.93,176.25z"/>
	</g>
</g>
</svg>
