<?xml version="1.0" encoding="utf-8"?>
<!-- Generator: Adobe Illustrator 26.1.0, SVG Export Plug-In . SVG Version: 6.00 Build 0)  -->
<svg version="1.1" id="katman_1" xmlns="http://www.w3.org/2000/svg" xmlns:xlink="http://www.w3.org/1999/xlink" x="0px" y="0px"
	 viewBox="0 0 362.09 152.35" style="enable-background:new 0 0 362.09 152.35;" xml:space="preserve">
<style type="text/css">
	.st0{display:none;}
	.st1{display:inline;fill:#0B4F99;}
	.st2{fill:#FFFFFF;}
</style>
<g class="st0">
	<path class="st1" d="M298.32,29.46h-114.8v93.52h114.8c12.06,0,22.98-5.23,30.88-13.69c7.9-8.46,12.8-20.16,12.8-33.07
		C342,50.4,322.44,29.46,298.32,29.46z M322.32,101.95c-6.13,6.57-14.6,10.63-23.96,10.63H193.25V40.02h105.11
		c18.72,0,33.89,16.24,33.89,36.28C332.25,86.32,328.46,95.39,322.32,101.95z"/>
	<path class="st1" d="M118.39,72.31v8.05c0,3.51-1.02,4.34-4.6,4.34h-9.77c-3.84,0-4.67-0.83-4.67-4.34v-8.05
		c0-3.39,0.84-4.41,4.67-4.41h9.8C117.4,67.9,118.39,68.92,118.39,72.31z"/>
	<path class="st1" d="M80.65,67.93H64.93v8.38h15.76c3.91,0,5.03-0.66,5.03-3.6v-1.47C85.72,68.29,84.62,67.93,80.65,67.93z
		 M80.65,67.93H64.93v8.38h15.76c3.91,0,5.03-0.66,5.03-3.6v-1.47C85.72,68.29,84.62,67.93,80.65,67.93z M66.85,29.37
		c-25.82,0-46.76,20.93-46.76,46.76c0,12.91,5.23,24.6,13.7,33.06c8.46,8.47,20.15,13.7,33.06,13.7h111.72V29.37H66.85z
		 M67.31,112.48c-10.02,0-19.09-4.06-25.66-10.62c-6.56-6.57-10.62-15.63-10.62-25.65v-0.06c0.03-20.01,16.26-36.22,36.28-36.22
		h41.56v10.52H67.28c-14.2,0-25.71,11.51-25.71,25.7c0,7.1,2.88,13.52,7.53,18.18c4.65,4.64,11.08,7.52,18.18,7.52h41.59l0.01,10.63
		H67.31z M64.93,89.89l-5.2,0.04V62.72h21.32c7.61,0,9.88,1.67,9.88,8.2v1.85c0,6.34-2.52,8.75-9.95,8.75l-2.89-0.05l13.21,8.46
		h-9.61L64.91,79.24L64.93,89.89z M123.61,80.53c0,6.9-1.51,9.35-9.56,9.35H103.7c-7.99,0-9.54-2.43-9.54-9.33v-8.5
		c0-6.84,1.55-9.33,9.54-9.33h10.35c8.05,0,9.56,2.49,9.56,9.33V80.53z M168.02,89.93l-5.21-0.04V71.65l-12.86,17.08
		c-0.62,0.79-1.35,1.16-2.52,1.16c-1.16,0-1.94-0.41-2.56-1.2l-12.83-17.04v18.24h-5.21l0.01-24.84c0-1.6,1.35-2.33,3.19-2.33
		c1.35,0,2.08,0.31,2.7,1.23l14.7,19.48l14.75-19.61c0.68-0.85,1.37-1.1,2.72-1.1c1.71,0,3.12,0.73,3.12,2.33V89.93z M85.72,72.71
		v-1.47c0-2.95-1.1-3.31-5.07-3.31H64.93v8.38h15.76C84.6,76.31,85.72,75.65,85.72,72.71z M80.65,67.93H64.93v8.38h15.76
		c3.91,0,5.03-0.66,5.03-3.6v-1.47C85.72,68.29,84.62,67.93,80.65,67.93z M80.65,67.93H64.93v8.38h15.76c3.91,0,5.03-0.66,5.03-3.6
		v-1.47C85.72,68.29,84.62,67.93,80.65,67.93z"/>
	<path class="st1" d="M201.49,62.67v5.21h11.86v21.96h5.21V67.89h11.87v-5.21H201.49z"/>
	<path class="st1" d="M289.82,62.59v5.21h11.86v21.96h5.21V67.81h11.87v-5.21H289.82z"/>
	<path class="st1" d="M244,84.63c-3.55,0-5.13-0.63-5.13-3.9v-1.87h24l0-5.21h-24v-1.59c0-3.16,1.65-4.17,5.14-4.17h6.71l0-5.21
		h-6.71c-8.04,0-10.37,2.44-10.37,9.32v8.54c0,6.88,2.33,9.32,10.37,9.32l18.85,0v-5.21L244,84.63z"/>
	<path class="st1" d="M287.09,73.57h-12.72c-1.94,0-3.07-0.55-3.07-2.27v-0.87c0-2.11,1.16-2.63,2.99-2.63h8.04l0-5.21h-8.48
		c-5.49,0-7.76,2.11-7.76,7.71v1.31c0,4.66,1.64,7.17,7.74,7.17h12.96c2.11,0,3.1,0.33,3.1,2.05v1.5c0,1.83-0.95,2.22-3.11,2.22
		h-20.68l0,5.21h21.02c6.04,0,7.98-2,7.98-7.04v-2.16C295.08,75.68,293.13,73.57,287.09,73.57z"/>
</g>
<g>
	<path class="st2" d="M93.42,89.6l-12.88-8.24l2.8,0.03c7.27,0,9.73-2.34,9.73-8.53v-1.81c0-6.37-2.22-8-9.64-8H62.61V89.6
		l5.08-0.03l-0.03-10.4L84.05,89.6H93.42z M67.69,68.13h15.34c3.89,0,4.97,0.35,4.97,3.24v1.43c0,2.86-1.11,3.51-4.91,3.51H67.69
		V68.13z M110.57,101.25h-40.6c-6.92,0-13.2-2.8-17.73-7.33c-4.56-4.56-7.36-10.84-7.36-17.76c0-13.85,11.25-25.09,25.09-25.09h40.6
		V40.78H70c-19.54,0-35.38,15.83-35.4,35.38v0.06c0,9.79,3.97,18.64,10.37,25.03S60.24,111.62,70,111.62h40.6L110.57,101.25z
		 M115.62,63.04h-10.08c-7.8,0-9.32,2.42-9.32,9.11v8.3c0,6.75,1.52,9.11,9.32,9.11h10.08c7.89,0,9.35-2.4,9.35-9.14v-8.27
		C124.97,65.47,123.51,63.04,115.62,63.04z M119.89,80.28c0,3.42-1.02,4.24-4.5,4.24h-9.55c-3.74,0-4.56-0.82-4.56-4.24v-7.86
		c0-3.33,0.82-4.32,4.56-4.32h9.58c3.48,0,4.47,0.99,4.47,4.32V80.28z M165.28,63.04c-1.31,0-1.99,0.23-2.66,1.08l-14.4,19.13
		l-14.34-19.02c-0.61-0.91-1.31-1.2-2.63-1.2c-1.81,0-3.13,0.7-3.13,2.28v24.25h5.08V71.78l12.53,16.62
		c0.58,0.76,1.34,1.17,2.48,1.17c1.14,0,1.87-0.35,2.45-1.14l12.56-16.65v17.79l5.08,0.03V65.32
		C168.32,63.74,166.95,63.04,165.28,63.04z M165.28,63.04c-1.31,0-1.99,0.23-2.66,1.08l-14.4,19.13l-14.34-19.02
		c-0.61-0.91-1.31-1.2-2.63-1.2c-1.81,0-3.13,0.7-3.13,2.28v24.25h5.08V71.78l12.53,16.62c0.58,0.76,1.34,1.17,2.48,1.17
		c1.14,0,1.87-0.35,2.45-1.14l12.56-16.65v17.79l5.08,0.03V65.32C168.32,63.74,166.95,63.04,165.28,63.04z M115.62,63.04h-10.08
		c-7.8,0-9.32,2.42-9.32,9.11v8.3c0,6.75,1.52,9.11,9.32,9.11h10.08c7.89,0,9.35-2.4,9.35-9.14v-8.27
		C124.97,65.47,123.51,63.04,115.62,63.04z M119.89,80.28c0,3.42-1.02,4.24-4.5,4.24h-9.55c-3.74,0-4.56-0.82-4.56-4.24v-7.86
		c0-3.33,0.82-4.32,4.56-4.32h9.58c3.48,0,4.47,0.99,4.47,4.32V80.28z M110.57,101.25h-40.6c-6.92,0-13.2-2.8-17.73-7.33
		c-4.56-4.56-7.36-10.84-7.36-17.76c0-13.85,11.25-25.09,25.09-25.09h40.6V40.78H70c-19.54,0-35.38,15.83-35.4,35.38v0.06
		c0,9.79,3.97,18.64,10.37,25.03S60.24,111.62,70,111.62h40.6L110.57,101.25z M93.42,89.6l-12.88-8.24l2.8,0.03
		c7.27,0,9.73-2.34,9.73-8.53v-1.81c0-6.37-2.22-8-9.64-8H62.61V89.6l5.08-0.03l-0.03-10.4L84.05,89.6H93.42z M67.69,68.13h15.34
		c3.89,0,4.97,0.35,4.97,3.24v1.43c0,2.86-1.11,3.51-4.91,3.51H67.69V68.13z M93.42,89.6l-12.88-8.24l2.8,0.03
		c7.27,0,9.73-2.34,9.73-8.53v-1.81c0-6.37-2.22-8-9.64-8H62.61V89.6l5.08-0.03l-0.03-10.4L84.05,89.6H93.42z M67.69,68.13h15.34
		c3.89,0,4.97,0.35,4.97,3.24v1.43c0,2.86-1.11,3.51-4.91,3.51H67.69V68.13z M110.57,101.25h-40.6c-6.92,0-13.2-2.8-17.73-7.33
		c-4.56-4.56-7.36-10.84-7.36-17.76c0-13.85,11.25-25.09,25.09-25.09h40.6V40.78H70c-19.54,0-35.38,15.83-35.4,35.38v0.06
		c0,9.79,3.97,18.64,10.37,25.03S60.24,111.62,70,111.62h40.6L110.57,101.25z M115.62,63.04h-10.08c-7.8,0-9.32,2.42-9.32,9.11v8.3
		c0,6.75,1.52,9.11,9.32,9.11h10.08c7.89,0,9.35-2.4,9.35-9.14v-8.27C124.97,65.47,123.51,63.04,115.62,63.04z M119.89,80.28
		c0,3.42-1.02,4.24-4.5,4.24h-9.55c-3.74,0-4.56-0.82-4.56-4.24v-7.86c0-3.33,0.82-4.32,4.56-4.32h9.58c3.48,0,4.47,0.99,4.47,4.32
		V80.28z M165.28,63.04c-1.31,0-1.99,0.23-2.66,1.08l-14.4,19.13l-14.34-19.02c-0.61-0.91-1.31-1.2-2.63-1.2
		c-1.81,0-3.13,0.7-3.13,2.28v24.25h5.08V71.78l12.53,16.62c0.58,0.76,1.34,1.17,2.48,1.17c1.14,0,1.87-0.35,2.45-1.14l12.56-16.65
		v17.79l5.08,0.03V65.32C168.32,63.74,166.95,63.04,165.28,63.04z M295.57,40.87H192.98v70.84h102.59c9.14,0,17.41-3.94,23.4-10.37
		c5.99-6.4,9.7-15.25,9.7-25.03C328.66,56.73,313.85,40.87,295.57,40.87z M229.26,68.1h-11.6v21.44h-5.08V68.1h-11.57v-5.08h28.25
		V68.1z M260.92,78.82h-23.43v1.81c0,3.21,1.55,3.8,5.02,3.8h18.4v5.11h-18.4c-7.86,0-10.11-2.4-10.11-9.11V72.1
		c0-6.72,2.25-9.08,10.11-9.08h6.54v5.08h-6.54c-3.42,0-5.02,0.99-5.02,4.06v1.58h23.43V78.82z M292.38,82.59
		c0,4.91-1.9,6.86-7.8,6.86h-20.51v-5.08h20.19c2.1,0,3.04-0.38,3.04-2.16v-1.46c0-1.69-0.96-2.02-3.04-2.02h-12.65
		c-5.96,0-7.54-2.45-7.54-7.01v-1.29c0-5.46,2.22-7.51,7.57-7.51h8.3v5.08h-7.86c-1.78,0-2.92,0.53-2.92,2.57v0.85
		c0,1.67,1.11,2.22,3.01,2.22h12.41c5.9,0,7.8,2.04,7.8,6.81V82.59z M315.49,68.01h-11.57v21.44h-5.08V68.01h-11.6v-5.08h28.25
		V68.01z M295.57,40.87H192.98v70.84h102.59c9.14,0,17.41-3.94,23.4-10.37c5.99-6.4,9.7-15.25,9.7-25.03
		C328.66,56.73,313.85,40.87,295.57,40.87z M229.26,68.1h-11.6v21.44h-5.08V68.1h-11.57v-5.08h28.25V68.1z M260.92,78.82h-23.43
		v1.81c0,3.21,1.55,3.8,5.02,3.8h18.4v5.11h-18.4c-7.86,0-10.11-2.4-10.11-9.11V72.1c0-6.72,2.25-9.08,10.11-9.08h6.54v5.08h-6.54
		c-3.42,0-5.02,0.99-5.02,4.06v1.58h23.43V78.82z M292.38,82.59c0,4.91-1.9,6.86-7.8,6.86h-20.51v-5.08h20.19
		c2.1,0,3.04-0.38,3.04-2.16v-1.46c0-1.69-0.96-2.02-3.04-2.02h-12.65c-5.96,0-7.54-2.45-7.54-7.01v-1.29
		c0-5.46,2.22-7.51,7.57-7.51h8.3v5.08h-7.86c-1.78,0-2.92,0.53-2.92,2.57v0.85c0,1.67,1.11,2.22,3.01,2.22h12.41
		c5.9,0,7.8,2.04,7.8,6.81V82.59z M315.49,68.01h-11.57v21.44h-5.08V68.01h-11.6v-5.08h28.25V68.01z M165.28,63.04
		c-1.31,0-1.99,0.23-2.66,1.08l-14.4,19.13l-14.34-19.02c-0.61-0.91-1.31-1.2-2.63-1.2c-1.81,0-3.13,0.7-3.13,2.28v24.25h5.08V71.78
		l12.53,16.62c0.58,0.76,1.34,1.17,2.48,1.17c1.14,0,1.87-0.35,2.45-1.14l12.56-16.65v17.79l5.08,0.03V65.32
		C168.32,63.74,166.95,63.04,165.28,63.04z M115.62,63.04h-10.08c-7.8,0-9.32,2.42-9.32,9.11v8.3c0,6.75,1.52,9.11,9.32,9.11h10.08
		c7.89,0,9.35-2.4,9.35-9.14v-8.27C124.97,65.47,123.51,63.04,115.62,63.04z M119.89,80.28c0,3.42-1.02,4.24-4.5,4.24h-9.55
		c-3.74,0-4.56-0.82-4.56-4.24v-7.86c0-3.33,0.82-4.32,4.56-4.32h9.58c3.48,0,4.47,0.99,4.47,4.32V80.28z M110.57,101.25h-40.6
		c-6.92,0-13.2-2.8-17.73-7.33c-4.56-4.56-7.36-10.84-7.36-17.76c0-13.85,11.25-25.09,25.09-25.09h40.6V40.78H70
		c-19.54,0-35.38,15.83-35.4,35.38v0.06c0,9.79,3.97,18.64,10.37,25.03S60.24,111.62,70,111.62h40.6L110.57,101.25z M93.42,89.6
		l-12.88-8.24l2.8,0.03c7.27,0,9.73-2.34,9.73-8.53v-1.81c0-6.37-2.22-8-9.64-8H62.61V89.6l5.08-0.03l-0.03-10.4L84.05,89.6H93.42z
		 M67.69,68.13h15.34c3.89,0,4.97,0.35,4.97,3.24v1.43c0,2.86-1.11,3.51-4.91,3.51H67.69V68.13z M93.42,89.6l-12.88-8.24l2.8,0.03
		c7.27,0,9.73-2.34,9.73-8.53v-1.81c0-6.37-2.22-8-9.64-8H62.61V89.6l5.08-0.03l-0.03-10.4L84.05,89.6H93.42z M67.69,68.13h15.34
		c3.89,0,4.97,0.35,4.97,3.24v1.43c0,2.86-1.11,3.51-4.91,3.51H67.69V68.13z M110.57,101.25h-40.6c-6.92,0-13.2-2.8-17.73-7.33
		c-4.56-4.56-7.36-10.84-7.36-17.76c0-13.85,11.25-25.09,25.09-25.09h40.6V40.78H70c-19.54,0-35.38,15.83-35.4,35.38v0.06
		c0,9.79,3.97,18.64,10.37,25.03S60.24,111.62,70,111.62h40.6L110.57,101.25z M115.62,63.04h-10.08c-7.8,0-9.32,2.42-9.32,9.11v8.3
		c0,6.75,1.52,9.11,9.32,9.11h10.08c7.89,0,9.35-2.4,9.35-9.14v-8.27C124.97,65.47,123.51,63.04,115.62,63.04z M119.89,80.28
		c0,3.42-1.02,4.24-4.5,4.24h-9.55c-3.74,0-4.56-0.82-4.56-4.24v-7.86c0-3.33,0.82-4.32,4.56-4.32h9.58c3.48,0,4.47,0.99,4.47,4.32
		V80.28z M165.28,63.04c-1.31,0-1.99,0.23-2.66,1.08l-14.4,19.13l-14.34-19.02c-0.61-0.91-1.31-1.2-2.63-1.2
		c-1.81,0-3.13,0.7-3.13,2.28v24.25h5.08V71.78l12.53,16.62c0.58,0.76,1.34,1.17,2.48,1.17c1.14,0,1.87-0.35,2.45-1.14l12.56-16.65
		v17.79l5.08,0.03V65.32C168.32,63.74,166.95,63.04,165.28,63.04z M295.57,40.87H192.98v70.84h102.59c9.14,0,17.41-3.94,23.4-10.37
		c5.99-6.4,9.7-15.25,9.7-25.03C328.66,56.73,313.85,40.87,295.57,40.87z M229.26,68.1h-11.6v21.44h-5.08V68.1h-11.57v-5.08h28.25
		V68.1z M260.92,78.82h-23.43v1.81c0,3.21,1.55,3.8,5.02,3.8h18.4v5.11h-18.4c-7.86,0-10.11-2.4-10.11-9.11V72.1
		c0-6.72,2.25-9.08,10.11-9.08h6.54v5.08h-6.54c-3.42,0-5.02,0.99-5.02,4.06v1.58h23.43V78.82z M292.38,82.59
		c0,4.91-1.9,6.86-7.8,6.86h-20.51v-5.08h20.19c2.1,0,3.04-0.38,3.04-2.16v-1.46c0-1.69-0.96-2.02-3.04-2.02h-12.65
		c-5.96,0-7.54-2.45-7.54-7.01v-1.29c0-5.46,2.22-7.51,7.57-7.51h8.3v5.08h-7.86c-1.78,0-2.92,0.53-2.92,2.57v0.85
		c0,1.67,1.11,2.22,3.01,2.22h12.41c5.9,0,7.8,2.04,7.8,6.81V82.59z M315.49,68.01h-11.57v21.44h-5.08V68.01h-11.6v-5.08h28.25
		V68.01z M295.57,40.87H192.98v70.84h102.59c9.14,0,17.41-3.94,23.4-10.37c5.99-6.4,9.7-15.25,9.7-25.03
		C328.66,56.73,313.85,40.87,295.57,40.87z M229.26,68.1h-11.6v21.44h-5.08V68.1h-11.57v-5.08h28.25V68.1z M260.92,78.82h-23.43
		v1.81c0,3.21,1.55,3.8,5.02,3.8h18.4v5.11h-18.4c-7.86,0-10.11-2.4-10.11-9.11V72.1c0-6.72,2.25-9.08,10.11-9.08h6.54v5.08h-6.54
		c-3.42,0-5.02,0.99-5.02,4.06v1.58h23.43V78.82z M292.38,82.59c0,4.91-1.9,6.86-7.8,6.86h-20.51v-5.08h20.19
		c2.1,0,3.04-0.38,3.04-2.16v-1.46c0-1.69-0.96-2.02-3.04-2.02h-12.65c-5.96,0-7.54-2.45-7.54-7.01v-1.29
		c0-5.46,2.22-7.51,7.57-7.51h8.3v5.08h-7.86c-1.78,0-2.92,0.53-2.92,2.57v0.85c0,1.67,1.11,2.22,3.01,2.22h12.41
		c5.9,0,7.8,2.04,7.8,6.81V82.59z M315.49,68.01h-11.57v21.44h-5.08V68.01h-11.6v-5.08h28.25V68.01z M165.28,63.04
		c-1.31,0-1.99,0.23-2.66,1.08l-14.4,19.13l-14.34-19.02c-0.61-0.91-1.31-1.2-2.63-1.2c-1.81,0-3.13,0.7-3.13,2.28v24.25h5.08V71.78
		l12.53,16.62c0.58,0.76,1.34,1.17,2.48,1.17c1.14,0,1.87-0.35,2.45-1.14l12.56-16.65v17.79l5.08,0.03V65.32
		C168.32,63.74,166.95,63.04,165.28,63.04z M115.62,63.04h-10.08c-7.8,0-9.32,2.42-9.32,9.11v8.3c0,6.75,1.52,9.11,9.32,9.11h10.08
		c7.89,0,9.35-2.4,9.35-9.14v-8.27C124.97,65.47,123.51,63.04,115.62,63.04z M119.89,80.28c0,3.42-1.02,4.24-4.5,4.24h-9.55
		c-3.74,0-4.56-0.82-4.56-4.24v-7.86c0-3.33,0.82-4.32,4.56-4.32h9.58c3.48,0,4.47,0.99,4.47,4.32V80.28z M110.57,101.25h-40.6
		c-6.92,0-13.2-2.8-17.73-7.33c-4.56-4.56-7.36-10.84-7.36-17.76c0-13.85,11.25-25.09,25.09-25.09h40.6V40.78H70
		c-19.54,0-35.38,15.83-35.4,35.38v0.06c0,9.79,3.97,18.64,10.37,25.03S60.24,111.62,70,111.62h40.6L110.57,101.25z M93.42,89.6
		l-12.88-8.24l2.8,0.03c7.27,0,9.73-2.34,9.73-8.53v-1.81c0-6.37-2.22-8-9.64-8H62.61V89.6l5.08-0.03l-0.03-10.4L84.05,89.6H93.42z
		 M67.69,68.13h15.34c3.89,0,4.97,0.35,4.97,3.24v1.43c0,2.86-1.11,3.51-4.91,3.51H67.69V68.13z M93.42,89.6l-12.88-8.24l2.8,0.03
		c7.27,0,9.73-2.34,9.73-8.53v-1.81c0-6.37-2.22-8-9.64-8H62.61V89.6l5.08-0.03l-0.03-10.4L84.05,89.6H93.42z M67.69,68.13h15.34
		c3.89,0,4.97,0.35,4.97,3.24v1.43c0,2.86-1.11,3.51-4.91,3.51H67.69V68.13z M110.57,101.25h-40.6c-6.92,0-13.2-2.8-17.73-7.33
		c-4.56-4.56-7.36-10.84-7.36-17.76c0-13.85,11.25-25.09,25.09-25.09h40.6V40.78H70c-19.54,0-35.38,15.83-35.4,35.38v0.06
		c0,9.79,3.97,18.64,10.37,25.03S60.24,111.62,70,111.62h40.6L110.57,101.25z M115.62,63.04h-10.08c-7.8,0-9.32,2.42-9.32,9.11v8.3
		c0,6.75,1.52,9.11,9.32,9.11h10.08c7.89,0,9.35-2.4,9.35-9.14v-8.27C124.97,65.47,123.51,63.04,115.62,63.04z M119.89,80.28
		c0,3.42-1.02,4.24-4.5,4.24h-9.55c-3.74,0-4.56-0.82-4.56-4.24v-7.86c0-3.33,0.82-4.32,4.56-4.32h9.58c3.48,0,4.47,0.99,4.47,4.32
		V80.28z M165.28,63.04c-1.31,0-1.99,0.23-2.66,1.08l-14.4,19.13l-14.34-19.02c-0.61-0.91-1.31-1.2-2.63-1.2
		c-1.81,0-3.13,0.7-3.13,2.28v24.25h5.08V71.78l12.53,16.62c0.58,0.76,1.34,1.17,2.48,1.17c1.14,0,1.87-0.35,2.45-1.14l12.56-16.65
		v17.79l5.08,0.03V65.32C168.32,63.74,166.95,63.04,165.28,63.04z M295.57,40.87H192.98v70.84h102.59c9.14,0,17.41-3.94,23.4-10.37
		c5.99-6.4,9.7-15.25,9.7-25.03C328.66,56.73,313.85,40.87,295.57,40.87z M229.26,68.1h-11.6v21.44h-5.08V68.1h-11.57v-5.08h28.25
		V68.1z M260.92,78.82h-23.43v1.81c0,3.21,1.55,3.8,5.02,3.8h18.4v5.11h-18.4c-7.86,0-10.11-2.4-10.11-9.11V72.1
		c0-6.72,2.25-9.08,10.11-9.08h6.54v5.08h-6.54c-3.42,0-5.02,0.99-5.02,4.06v1.58h23.43V78.82z M292.38,82.59
		c0,4.91-1.9,6.86-7.8,6.86h-20.51v-5.08h20.19c2.1,0,3.04-0.38,3.04-2.16v-1.46c0-1.69-0.96-2.02-3.04-2.02h-12.65
		c-5.96,0-7.54-2.45-7.54-7.01v-1.29c0-5.46,2.22-7.51,7.57-7.51h8.3v5.08h-7.86c-1.78,0-2.92,0.53-2.92,2.57v0.85
		c0,1.67,1.11,2.22,3.01,2.22h12.41c5.9,0,7.8,2.04,7.8,6.81V82.59z M315.49,68.01h-11.57v21.44h-5.08V68.01h-11.6v-5.08h28.25
		V68.01z M295.57,40.87H192.98v70.84h102.59c9.14,0,17.41-3.94,23.4-10.37c5.99-6.4,9.7-15.25,9.7-25.03
		C328.66,56.73,313.85,40.87,295.57,40.87z M229.26,68.1h-11.6v21.44h-5.08V68.1h-11.57v-5.08h28.25V68.1z M260.92,78.82h-23.43
		v1.81c0,3.21,1.55,3.8,5.02,3.8h18.4v5.11h-18.4c-7.86,0-10.11-2.4-10.11-9.11V72.1c0-6.72,2.25-9.08,10.11-9.08h6.54v5.08h-6.54
		c-3.42,0-5.02,0.99-5.02,4.06v1.58h23.43V78.82z M292.38,82.59c0,4.91-1.9,6.86-7.8,6.86h-20.51v-5.08h20.19
		c2.1,0,3.04-0.38,3.04-2.16v-1.46c0-1.69-0.96-2.02-3.04-2.02h-12.65c-5.96,0-7.54-2.45-7.54-7.01v-1.29
		c0-5.46,2.22-7.51,7.57-7.51h8.3v5.08h-7.86c-1.78,0-2.92,0.53-2.92,2.57v0.85c0,1.67,1.11,2.22,3.01,2.22h12.41
		c5.9,0,7.8,2.04,7.8,6.81V82.59z M315.49,68.01h-11.57v21.44h-5.08V68.01h-11.6v-5.08h28.25V68.01z M165.28,63.04
		c-1.31,0-1.99,0.23-2.66,1.08l-14.4,19.13l-14.34-19.02c-0.61-0.91-1.31-1.2-2.63-1.2c-1.81,0-3.13,0.7-3.13,2.28v24.25h5.08V71.78
		l12.53,16.62c0.58,0.76,1.34,1.17,2.48,1.17c1.14,0,1.87-0.35,2.45-1.14l12.56-16.65v17.79l5.08,0.03V65.32
		C168.32,63.74,166.95,63.04,165.28,63.04z M115.62,63.04h-10.08c-7.8,0-9.32,2.42-9.32,9.11v8.3c0,6.75,1.52,9.11,9.32,9.11h10.08
		c7.89,0,9.35-2.4,9.35-9.14v-8.27C124.97,65.47,123.51,63.04,115.62,63.04z M119.89,80.28c0,3.42-1.02,4.24-4.5,4.24h-9.55
		c-3.74,0-4.56-0.82-4.56-4.24v-7.86c0-3.33,0.82-4.32,4.56-4.32h9.58c3.48,0,4.47,0.99,4.47,4.32V80.28z M110.57,101.25h-40.6
		c-6.92,0-13.2-2.8-17.73-7.33c-4.56-4.56-7.36-10.84-7.36-17.76c0-13.85,11.25-25.09,25.09-25.09h40.6V40.78H70
		c-19.54,0-35.38,15.83-35.4,35.38v0.06c0,9.79,3.97,18.64,10.37,25.03S60.24,111.62,70,111.62h40.6L110.57,101.25z M93.42,89.6
		l-12.88-8.24l2.8,0.03c7.27,0,9.73-2.34,9.73-8.53v-1.81c0-6.37-2.22-8-9.64-8H62.61V89.6l5.08-0.03l-0.03-10.4L84.05,89.6H93.42z
		 M67.69,68.13h15.34c3.89,0,4.97,0.35,4.97,3.24v1.43c0,2.86-1.11,3.51-4.91,3.51H67.69V68.13z M93.42,89.6l-12.88-8.24l2.8,0.03
		c7.27,0,9.73-2.34,9.73-8.53v-1.81c0-6.37-2.22-8-9.64-8H62.61V89.6l5.08-0.03l-0.03-10.4L84.05,89.6H93.42z M67.69,68.13h15.34
		c3.89,0,4.97,0.35,4.97,3.24v1.43c0,2.86-1.11,3.51-4.91,3.51H67.69V68.13z M110.57,101.25h-40.6c-6.92,0-13.2-2.8-17.73-7.33
		c-4.56-4.56-7.36-10.84-7.36-17.76c0-13.85,11.25-25.09,25.09-25.09h40.6V40.78H70c-19.54,0-35.38,15.83-35.4,35.38v0.06
		c0,9.79,3.97,18.64,10.37,25.03S60.24,111.62,70,111.62h40.6L110.57,101.25z M115.62,63.04h-10.08c-7.8,0-9.32,2.42-9.32,9.11v8.3
		c0,6.75,1.52,9.11,9.32,9.11h10.08c7.89,0,9.35-2.4,9.35-9.14v-8.27C124.97,65.47,123.51,63.04,115.62,63.04z M119.89,80.28
		c0,3.42-1.02,4.24-4.5,4.24h-9.55c-3.74,0-4.56-0.82-4.56-4.24v-7.86c0-3.33,0.82-4.32,4.56-4.32h9.58c3.48,0,4.47,0.99,4.47,4.32
		V80.28z M165.28,63.04c-1.31,0-1.99,0.23-2.66,1.08l-14.4,19.13l-14.34-19.02c-0.61-0.91-1.31-1.2-2.63-1.2
		c-1.81,0-3.13,0.7-3.13,2.28v24.25h5.08V71.78l12.53,16.62c0.58,0.76,1.34,1.17,2.48,1.17c1.14,0,1.87-0.35,2.45-1.14l12.56-16.65
		v17.79l5.08,0.03V65.32C168.32,63.74,166.95,63.04,165.28,63.04z M295.57,40.87H192.98v70.84h102.59c9.14,0,17.41-3.94,23.4-10.37
		c5.99-6.4,9.7-15.25,9.7-25.03C328.66,56.73,313.85,40.87,295.57,40.87z M229.26,68.1h-11.6v21.44h-5.08V68.1h-11.57v-5.08h28.25
		V68.1z M260.92,78.82h-23.43v1.81c0,3.21,1.55,3.8,5.02,3.8h18.4v5.11h-18.4c-7.86,0-10.11-2.4-10.11-9.11V72.1
		c0-6.72,2.25-9.08,10.11-9.08h6.54v5.08h-6.54c-3.42,0-5.02,0.99-5.02,4.06v1.58h23.43V78.82z M292.38,82.59
		c0,4.91-1.9,6.86-7.8,6.86h-20.51v-5.08h20.19c2.1,0,3.04-0.38,3.04-2.16v-1.46c0-1.69-0.96-2.02-3.04-2.02h-12.65
		c-5.96,0-7.54-2.45-7.54-7.01v-1.29c0-5.46,2.22-7.51,7.57-7.51h8.3v5.08h-7.86c-1.78,0-2.92,0.53-2.92,2.57v0.85
		c0,1.67,1.11,2.22,3.01,2.22h12.41c5.9,0,7.8,2.04,7.8,6.81V82.59z M315.49,68.01h-11.57v21.44h-5.08V68.01h-11.6v-5.08h28.25
		V68.01z M295.57,40.87H192.98v70.84h102.59c9.14,0,17.41-3.94,23.4-10.37c5.99-6.4,9.7-15.25,9.7-25.03
		C328.66,56.73,313.85,40.87,295.57,40.87z M229.26,68.1h-11.6v21.44h-5.08V68.1h-11.57v-5.08h28.25V68.1z M260.92,78.82h-23.43
		v1.81c0,3.21,1.55,3.8,5.02,3.8h18.4v5.11h-18.4c-7.86,0-10.11-2.4-10.11-9.11V72.1c0-6.72,2.25-9.08,10.11-9.08h6.54v5.08h-6.54
		c-3.42,0-5.02,0.99-5.02,4.06v1.58h23.43V78.82z M292.38,82.59c0,4.91-1.9,6.86-7.8,6.86h-20.51v-5.08h20.19
		c2.1,0,3.04-0.38,3.04-2.16v-1.46c0-1.69-0.96-2.02-3.04-2.02h-12.65c-5.96,0-7.54-2.45-7.54-7.01v-1.29
		c0-5.46,2.22-7.51,7.57-7.51h8.3v5.08h-7.86c-1.78,0-2.92,0.53-2.92,2.57v0.85c0,1.67,1.11,2.22,3.01,2.22h12.41
		c5.9,0,7.8,2.04,7.8,6.81V82.59z M315.49,68.01h-11.57v21.44h-5.08V68.01h-11.6v-5.08h28.25V68.01z M165.28,63.04
		c-1.31,0-1.99,0.23-2.66,1.08l-14.4,19.13l-14.34-19.02c-0.61-0.91-1.31-1.2-2.63-1.2c-1.81,0-3.13,0.7-3.13,2.28v24.25h5.08V71.78
		l12.53,16.62c0.58,0.76,1.34,1.17,2.48,1.17c1.14,0,1.87-0.35,2.45-1.14l12.56-16.65v17.79l5.08,0.03V65.32
		C168.32,63.74,166.95,63.04,165.28,63.04z M115.62,63.04h-10.08c-7.8,0-9.32,2.42-9.32,9.11v8.3c0,6.75,1.52,9.11,9.32,9.11h10.08
		c7.89,0,9.35-2.4,9.35-9.14v-8.27C124.97,65.47,123.51,63.04,115.62,63.04z M119.89,80.28c0,3.42-1.02,4.24-4.5,4.24h-9.55
		c-3.74,0-4.56-0.82-4.56-4.24v-7.86c0-3.33,0.82-4.32,4.56-4.32h9.58c3.48,0,4.47,0.99,4.47,4.32V80.28z M69.97,101.25
		c-6.92,0-13.2-2.8-17.73-7.33c-4.56-4.56-7.36-10.84-7.36-17.76c0-13.85,11.25-25.09,25.09-25.09h40.6V40.78H70
		c-19.54,0-35.38,15.83-35.4,35.38v0.06c0,9.79,3.97,18.64,10.37,25.03S60.24,111.62,70,111.62h40.6l-0.03-10.37H69.97z M93.42,89.6
		l-12.88-8.24l2.8,0.03c7.27,0,9.73-2.34,9.73-8.53v-1.81c0-6.37-2.22-8-9.64-8H62.61V89.6l5.08-0.03l-0.03-10.4L84.05,89.6H93.42z
		 M67.69,68.13h15.34c3.89,0,4.97,0.35,4.97,3.24v1.43c0,2.86-1.11,3.51-4.91,3.51H67.69V68.13z M295.54,26.97H182.23v-0.09H69.56
		c-27.17,0-49.25,22.11-49.25,49.25c0,13.17,5.11,25.53,14.43,34.82c9.29,9.32,21.67,14.43,34.82,14.43h110.3v0.09h115.68
		c12.39,0,24.04-5.14,32.78-14.49c8.68-9.32,13.47-21.65,13.47-34.76C341.78,49.08,321.04,26.97,295.54,26.97z M178.63,121.79H69.56
		c-12.59,0-24.01-5.11-32.28-13.38c-8.27-8.27-13.38-19.66-13.38-32.28c0-25.21,20.45-45.66,45.66-45.66h109.08V121.79z
		 M325.68,108.53c-7.71,8.24-18.37,13.35-30.15,13.35H183.45V30.59h112.08c23.54,0,42.65,20.42,42.65,45.63
		C338.19,88.84,333.4,100.26,325.68,108.53z M295.57,40.87H192.98v70.84h102.59c9.14,0,17.41-3.94,23.4-10.37
		c5.99-6.4,9.7-15.25,9.7-25.03C328.66,56.73,313.85,40.87,295.57,40.87z M229.26,68.1h-11.6v21.44h-5.08V68.1h-11.57v-5.08h28.25
		V68.1z M260.92,78.82h-23.43v1.81c0,3.21,1.55,3.8,5.02,3.8h18.4v5.11h-18.4c-7.86,0-10.11-2.4-10.11-9.11V72.1
		c0-6.72,2.25-9.08,10.11-9.08h6.54v5.08h-6.54c-3.42,0-5.02,0.99-5.02,4.06v1.58h23.43V78.82z M292.38,82.59
		c0,4.91-1.9,6.86-7.8,6.86h-20.51v-5.08h20.19c2.1,0,3.04-0.38,3.04-2.16v-1.46c0-1.69-0.96-2.02-3.04-2.02h-12.65
		c-5.96,0-7.54-2.45-7.54-7.01v-1.29c0-5.46,2.22-7.51,7.57-7.51h8.3v5.08h-7.86c-1.78,0-2.92,0.53-2.92,2.57v0.85
		c0,1.67,1.11,2.22,3.01,2.22h12.41c5.9,0,7.8,2.04,7.8,6.81V82.59z M315.49,68.01h-11.57v21.44h-5.08V68.01h-11.6v-5.08h28.25
		V68.01z M133.21,71.78l12.53,16.62c0.58,0.76,1.34,1.17,2.48,1.17c1.14,0,1.87-0.35,2.45-1.14l12.56-16.65v17.79l5.08,0.03V65.32
		c0-1.58-1.37-2.28-3.04-2.28c-1.31,0-1.99,0.23-2.66,1.08l-14.4,19.13l-14.34-19.02c-0.61-0.91-1.31-1.2-2.63-1.2
		c-1.81,0-3.13,0.7-3.13,2.28v24.25h5.08V71.78z M96.23,72.16v8.3c0,6.75,1.52,9.11,9.32,9.11h10.08c7.89,0,9.35-2.4,9.35-9.14
		v-8.27c0-6.69-1.46-9.11-9.35-9.11h-10.08C97.75,63.04,96.23,65.47,96.23,72.16z M115.42,68.1c3.48,0,4.47,0.99,4.47,4.32v7.86
		c0,3.42-1.02,4.24-4.5,4.24h-9.55c-3.74,0-4.56-0.82-4.56-4.24v-7.86c0-3.33,0.82-4.32,4.56-4.32H115.42z M34.59,76.16v0.06
		c0,9.79,3.97,18.64,10.37,25.03S60.24,111.62,70,111.62h40.6l-0.03-10.37h-40.6c-6.92,0-13.2-2.8-17.73-7.33
		c-4.56-4.56-7.36-10.84-7.36-17.76c0-13.85,11.25-25.09,25.09-25.09h40.6V40.78H70C50.45,40.78,34.62,56.62,34.59,76.16z
		 M93.42,89.6l-12.88-8.24l2.8,0.03c7.27,0,9.73-2.34,9.73-8.53v-1.81c0-6.37-2.22-8-9.64-8H62.61V89.6l5.08-0.03l-0.03-10.4
		L84.05,89.6H93.42z M67.69,68.13h15.34c3.89,0,4.97,0.35,4.97,3.24v1.43c0,2.86-1.11,3.51-4.91,3.51H67.69V68.13z M93.42,89.6
		l-12.88-8.24l2.8,0.03c7.27,0,9.73-2.34,9.73-8.53v-1.81c0-6.37-2.22-8-9.64-8H62.61V89.6l5.08-0.03l-0.03-10.4L84.05,89.6H93.42z
		 M67.69,68.13h15.34c3.89,0,4.97,0.35,4.97,3.24v1.43c0,2.86-1.11,3.51-4.91,3.51H67.69V68.13z M110.57,101.25h-40.6
		c-6.92,0-13.2-2.8-17.73-7.33c-4.56-4.56-7.36-10.84-7.36-17.76c0-13.85,11.25-25.09,25.09-25.09h40.6V40.78H70
		c-19.54,0-35.38,15.83-35.4,35.38v0.06c0,9.79,3.97,18.64,10.37,25.03S60.24,111.62,70,111.62h40.6L110.57,101.25z M115.62,63.04
		h-10.08c-7.8,0-9.32,2.42-9.32,9.11v8.3c0,6.75,1.52,9.11,9.32,9.11h10.08c7.89,0,9.35-2.4,9.35-9.14v-8.27
		C124.97,65.47,123.51,63.04,115.62,63.04z M119.89,80.28c0,3.42-1.02,4.24-4.5,4.24h-9.55c-3.74,0-4.56-0.82-4.56-4.24v-7.86
		c0-3.33,0.82-4.32,4.56-4.32h9.58c3.48,0,4.47,0.99,4.47,4.32V80.28z M165.28,63.04c-1.31,0-1.99,0.23-2.66,1.08l-14.4,19.13
		l-14.34-19.02c-0.61-0.91-1.31-1.2-2.63-1.2c-1.81,0-3.13,0.7-3.13,2.28v24.25h5.08V71.78l12.53,16.62
		c0.58,0.76,1.34,1.17,2.48,1.17c1.14,0,1.87-0.35,2.45-1.14l12.56-16.65v17.79l5.08,0.03V65.32
		C168.32,63.74,166.95,63.04,165.28,63.04z M295.57,40.87H192.98v70.84h102.59c9.14,0,17.41-3.94,23.4-10.37
		c5.99-6.4,9.7-15.25,9.7-25.03C328.66,56.73,313.85,40.87,295.57,40.87z M229.26,68.1h-11.6v21.44h-5.08V68.1h-11.57v-5.08h28.25
		V68.1z M260.92,78.82h-23.43v1.81c0,3.21,1.55,3.8,5.02,3.8h18.4v5.11h-18.4c-7.86,0-10.11-2.4-10.11-9.11V72.1
		c0-6.72,2.25-9.08,10.11-9.08h6.54v5.08h-6.54c-3.42,0-5.02,0.99-5.02,4.06v1.58h23.43V78.82z M292.38,82.59
		c0,4.91-1.9,6.86-7.8,6.86h-20.51v-5.08h20.19c2.1,0,3.04-0.38,3.04-2.16v-1.46c0-1.69-0.96-2.02-3.04-2.02h-12.65
		c-5.96,0-7.54-2.45-7.54-7.01v-1.29c0-5.46,2.22-7.51,7.57-7.51h8.3v5.08h-7.86c-1.78,0-2.92,0.53-2.92,2.57v0.85
		c0,1.67,1.11,2.22,3.01,2.22h12.41c5.9,0,7.8,2.04,7.8,6.81V82.59z M315.49,68.01h-11.57v21.44h-5.08V68.01h-11.6v-5.08h28.25
		V68.01z M295.57,40.87H192.98v70.84h102.59c9.14,0,17.41-3.94,23.4-10.37c5.99-6.4,9.7-15.25,9.7-25.03
		C328.66,56.73,313.85,40.87,295.57,40.87z M229.26,68.1h-11.6v21.44h-5.08V68.1h-11.57v-5.08h28.25V68.1z M260.92,78.82h-23.43
		v1.81c0,3.21,1.55,3.8,5.02,3.8h18.4v5.11h-18.4c-7.86,0-10.11-2.4-10.11-9.11V72.1c0-6.72,2.25-9.08,10.11-9.08h6.54v5.08h-6.54
		c-3.42,0-5.02,0.99-5.02,4.06v1.58h23.43V78.82z M292.38,82.59c0,4.91-1.9,6.86-7.8,6.86h-20.51v-5.08h20.19
		c2.1,0,3.04-0.38,3.04-2.16v-1.46c0-1.69-0.96-2.02-3.04-2.02h-12.65c-5.96,0-7.54-2.45-7.54-7.01v-1.29
		c0-5.46,2.22-7.51,7.57-7.51h8.3v5.08h-7.86c-1.78,0-2.92,0.53-2.92,2.57v0.85c0,1.67,1.11,2.22,3.01,2.22h12.41
		c5.9,0,7.8,2.04,7.8,6.81V82.59z M315.49,68.01h-11.57v21.44h-5.08V68.01h-11.6v-5.08h28.25V68.01z M165.28,63.04
		c-1.31,0-1.99,0.23-2.66,1.08l-14.4,19.13l-14.34-19.02c-0.61-0.91-1.31-1.2-2.63-1.2c-1.81,0-3.13,0.7-3.13,2.28v24.25h5.08V71.78
		l12.53,16.62c0.58,0.76,1.34,1.17,2.48,1.17c1.14,0,1.87-0.35,2.45-1.14l12.56-16.65v17.79l5.08,0.03V65.32
		C168.32,63.74,166.95,63.04,165.28,63.04z M115.62,63.04h-10.08c-7.8,0-9.32,2.42-9.32,9.11v8.3c0,6.75,1.52,9.11,9.32,9.11h10.08
		c7.89,0,9.35-2.4,9.35-9.14v-8.27C124.97,65.47,123.51,63.04,115.62,63.04z M119.89,80.28c0,3.42-1.02,4.24-4.5,4.24h-9.55
		c-3.74,0-4.56-0.82-4.56-4.24v-7.86c0-3.33,0.82-4.32,4.56-4.32h9.58c3.48,0,4.47,0.99,4.47,4.32V80.28z M110.57,101.25h-40.6
		c-6.92,0-13.2-2.8-17.73-7.33c-4.56-4.56-7.36-10.84-7.36-17.76c0-13.85,11.25-25.09,25.09-25.09h40.6V40.78H70
		c-19.54,0-35.38,15.83-35.4,35.38v0.06c0,9.79,3.97,18.64,10.37,25.03S60.24,111.62,70,111.62h40.6L110.57,101.25z M93.42,89.6
		l-12.88-8.24l2.8,0.03c7.27,0,9.73-2.34,9.73-8.53v-1.81c0-6.37-2.22-8-9.64-8H62.61V89.6l5.08-0.03l-0.03-10.4L84.05,89.6H93.42z
		 M67.69,68.13h15.34c3.89,0,4.97,0.35,4.97,3.24v1.43c0,2.86-1.11,3.51-4.91,3.51H67.69V68.13z M93.42,89.6l-12.88-8.24l2.8,0.03
		c7.27,0,9.73-2.34,9.73-8.53v-1.81c0-6.37-2.22-8-9.64-8H62.61V89.6l5.08-0.03l-0.03-10.4L84.05,89.6H93.42z M67.69,68.13h15.34
		c3.89,0,4.97,0.35,4.97,3.24v1.43c0,2.86-1.11,3.51-4.91,3.51H67.69V68.13z M110.57,101.25h-40.6c-6.92,0-13.2-2.8-17.73-7.33
		c-4.56-4.56-7.36-10.84-7.36-17.76c0-13.85,11.25-25.09,25.09-25.09h40.6V40.78H70c-19.54,0-35.38,15.83-35.4,35.38v0.06
		c0,9.79,3.97,18.64,10.37,25.03S60.24,111.62,70,111.62h40.6L110.57,101.25z M115.62,63.04h-10.08c-7.8,0-9.32,2.42-9.32,9.11v8.3
		c0,6.75,1.52,9.11,9.32,9.11h10.08c7.89,0,9.35-2.4,9.35-9.14v-8.27C124.97,65.47,123.51,63.04,115.62,63.04z M119.89,80.28
		c0,3.42-1.02,4.24-4.5,4.24h-9.55c-3.74,0-4.56-0.82-4.56-4.24v-7.86c0-3.33,0.82-4.32,4.56-4.32h9.58c3.48,0,4.47,0.99,4.47,4.32
		V80.28z M165.28,63.04c-1.31,0-1.99,0.23-2.66,1.08l-14.4,19.13l-14.34-19.02c-0.61-0.91-1.31-1.2-2.63-1.2
		c-1.81,0-3.13,0.7-3.13,2.28v24.25h5.08V71.78l12.53,16.62c0.58,0.76,1.34,1.17,2.48,1.17c1.14,0,1.87-0.35,2.45-1.14l12.56-16.65
		v17.79l5.08,0.03V65.32C168.32,63.74,166.95,63.04,165.28,63.04z M295.57,40.87H192.98v70.84h102.59c9.14,0,17.41-3.94,23.4-10.37
		c5.99-6.4,9.7-15.25,9.7-25.03C328.66,56.73,313.85,40.87,295.57,40.87z M229.26,68.1h-11.6v21.44h-5.08V68.1h-11.57v-5.08h28.25
		V68.1z M260.92,78.82h-23.43v1.81c0,3.21,1.55,3.8,5.02,3.8h18.4v5.11h-18.4c-7.86,0-10.11-2.4-10.11-9.11V72.1
		c0-6.72,2.25-9.08,10.11-9.08h6.54v5.08h-6.54c-3.42,0-5.02,0.99-5.02,4.06v1.58h23.43V78.82z M292.38,82.59
		c0,4.91-1.9,6.86-7.8,6.86h-20.51v-5.08h20.19c2.1,0,3.04-0.38,3.04-2.16v-1.46c0-1.69-0.96-2.02-3.04-2.02h-12.65
		c-5.96,0-7.54-2.45-7.54-7.01v-1.29c0-5.46,2.22-7.51,7.57-7.51h8.3v5.08h-7.86c-1.78,0-2.92,0.53-2.92,2.57v0.85
		c0,1.67,1.11,2.22,3.01,2.22h12.41c5.9,0,7.8,2.04,7.8,6.81V82.59z M315.49,68.01h-11.57v21.44h-5.08V68.01h-11.6v-5.08h28.25
		V68.01z M295.57,40.87H192.98v70.84h102.59c9.14,0,17.41-3.94,23.4-10.37c5.99-6.4,9.7-15.25,9.7-25.03
		C328.66,56.73,313.85,40.87,295.57,40.87z M229.26,68.1h-11.6v21.44h-5.08V68.1h-11.57v-5.08h28.25V68.1z M260.92,78.82h-23.43
		v1.81c0,3.21,1.55,3.8,5.02,3.8h18.4v5.11h-18.4c-7.86,0-10.11-2.4-10.11-9.11V72.1c0-6.72,2.25-9.08,10.11-9.08h6.54v5.08h-6.54
		c-3.42,0-5.02,0.99-5.02,4.06v1.58h23.43V78.82z M292.38,82.59c0,4.91-1.9,6.86-7.8,6.86h-20.51v-5.08h20.19
		c2.1,0,3.04-0.38,3.04-2.16v-1.46c0-1.69-0.96-2.02-3.04-2.02h-12.65c-5.96,0-7.54-2.45-7.54-7.01v-1.29
		c0-5.46,2.22-7.51,7.57-7.51h8.3v5.08h-7.86c-1.78,0-2.92,0.53-2.92,2.57v0.85c0,1.67,1.11,2.22,3.01,2.22h12.41
		c5.9,0,7.8,2.04,7.8,6.81V82.59z M315.49,68.01h-11.57v21.44h-5.08V68.01h-11.6v-5.08h28.25V68.01z M165.28,63.04
		c-1.31,0-1.99,0.23-2.66,1.08l-14.4,19.13l-14.34-19.02c-0.61-0.91-1.31-1.2-2.63-1.2c-1.81,0-3.13,0.7-3.13,2.28v24.25h5.08V71.78
		l12.53,16.62c0.58,0.76,1.34,1.17,2.48,1.17c1.14,0,1.87-0.35,2.45-1.14l12.56-16.65v17.79l5.08,0.03V65.32
		C168.32,63.74,166.95,63.04,165.28,63.04z M115.62,63.04h-10.08c-7.8,0-9.32,2.42-9.32,9.11v8.3c0,6.75,1.52,9.11,9.32,9.11h10.08
		c7.89,0,9.35-2.4,9.35-9.14v-8.27C124.97,65.47,123.51,63.04,115.62,63.04z M119.89,80.28c0,3.42-1.02,4.24-4.5,4.24h-9.55
		c-3.74,0-4.56-0.82-4.56-4.24v-7.86c0-3.33,0.82-4.32,4.56-4.32h9.58c3.48,0,4.47,0.99,4.47,4.32V80.28z M110.57,101.25h-40.6
		c-6.92,0-13.2-2.8-17.73-7.33c-4.56-4.56-7.36-10.84-7.36-17.76c0-13.85,11.25-25.09,25.09-25.09h40.6V40.78H70
		c-19.54,0-35.38,15.83-35.4,35.38v0.06c0,9.79,3.97,18.64,10.37,25.03S60.24,111.62,70,111.62h40.6L110.57,101.25z M93.42,89.6
		l-12.88-8.24l2.8,0.03c7.27,0,9.73-2.34,9.73-8.53v-1.81c0-6.37-2.22-8-9.64-8H62.61V89.6l5.08-0.03l-0.03-10.4L84.05,89.6H93.42z
		 M67.69,68.13h15.34c3.89,0,4.97,0.35,4.97,3.24v1.43c0,2.86-1.11,3.51-4.91,3.51H67.69V68.13z M93.42,89.6l-12.88-8.24l2.8,0.03
		c7.27,0,9.73-2.34,9.73-8.53v-1.81c0-6.37-2.22-8-9.64-8H62.61V89.6l5.08-0.03l-0.03-10.4L84.05,89.6H93.42z M67.69,68.13h15.34
		c3.89,0,4.97,0.35,4.97,3.24v1.43c0,2.86-1.11,3.51-4.91,3.51H67.69V68.13z M110.57,101.25h-40.6c-6.92,0-13.2-2.8-17.73-7.33
		c-4.56-4.56-7.36-10.84-7.36-17.76c0-13.85,11.25-25.09,25.09-25.09h40.6V40.78H70c-19.54,0-35.38,15.83-35.4,35.38v0.06
		c0,9.79,3.97,18.64,10.37,25.03S60.24,111.62,70,111.62h40.6L110.57,101.25z M115.62,63.04h-10.08c-7.8,0-9.32,2.42-9.32,9.11v8.3
		c0,6.75,1.52,9.11,9.32,9.11h10.08c7.89,0,9.35-2.4,9.35-9.14v-8.27C124.97,65.47,123.51,63.04,115.62,63.04z M119.89,80.28
		c0,3.42-1.02,4.24-4.5,4.24h-9.55c-3.74,0-4.56-0.82-4.56-4.24v-7.86c0-3.33,0.82-4.32,4.56-4.32h9.58c3.48,0,4.47,0.99,4.47,4.32
		V80.28z M165.28,63.04c-1.31,0-1.99,0.23-2.66,1.08l-14.4,19.13l-14.34-19.02c-0.61-0.91-1.31-1.2-2.63-1.2
		c-1.81,0-3.13,0.7-3.13,2.28v24.25h5.08V71.78l12.53,16.62c0.58,0.76,1.34,1.17,2.48,1.17c1.14,0,1.87-0.35,2.45-1.14l12.56-16.65
		v17.79l5.08,0.03V65.32C168.32,63.74,166.95,63.04,165.28,63.04z M295.57,40.87H192.98v70.84h102.59c9.14,0,17.41-3.94,23.4-10.37
		c5.99-6.4,9.7-15.25,9.7-25.03C328.66,56.73,313.85,40.87,295.57,40.87z M229.26,68.1h-11.6v21.44h-5.08V68.1h-11.57v-5.08h28.25
		V68.1z M260.92,78.82h-23.43v1.81c0,3.21,1.55,3.8,5.02,3.8h18.4v5.11h-18.4c-7.86,0-10.11-2.4-10.11-9.11V72.1
		c0-6.72,2.25-9.08,10.11-9.08h6.54v5.08h-6.54c-3.42,0-5.02,0.99-5.02,4.06v1.58h23.43V78.82z M292.38,82.59
		c0,4.91-1.9,6.86-7.8,6.86h-20.51v-5.08h20.19c2.1,0,3.04-0.38,3.04-2.16v-1.46c0-1.69-0.96-2.02-3.04-2.02h-12.65
		c-5.96,0-7.54-2.45-7.54-7.01v-1.29c0-5.46,2.22-7.51,7.57-7.51h8.3v5.08h-7.86c-1.78,0-2.92,0.53-2.92,2.57v0.85
		c0,1.67,1.11,2.22,3.01,2.22h12.41c5.9,0,7.8,2.04,7.8,6.81V82.59z M315.49,68.01h-11.57v21.44h-5.08V68.01h-11.6v-5.08h28.25
		V68.01z M295.57,40.87H192.98v70.84h102.59c9.14,0,17.41-3.94,23.4-10.37c5.99-6.4,9.7-15.25,9.7-25.03
		C328.66,56.73,313.85,40.87,295.57,40.87z M229.26,68.1h-11.6v21.44h-5.08V68.1h-11.57v-5.08h28.25V68.1z M260.92,78.82h-23.43
		v1.81c0,3.21,1.55,3.8,5.02,3.8h18.4v5.11h-18.4c-7.86,0-10.11-2.4-10.11-9.11V72.1c0-6.72,2.25-9.08,10.11-9.08h6.54v5.08h-6.54
		c-3.42,0-5.02,0.99-5.02,4.06v1.58h23.43V78.82z M292.38,82.59c0,4.91-1.9,6.86-7.8,6.86h-20.51v-5.08h20.19
		c2.1,0,3.04-0.38,3.04-2.16v-1.46c0-1.69-0.96-2.02-3.04-2.02h-12.65c-5.96,0-7.54-2.45-7.54-7.01v-1.29
		c0-5.46,2.22-7.51,7.57-7.51h8.3v5.08h-7.86c-1.78,0-2.92,0.53-2.92,2.57v0.85c0,1.67,1.11,2.22,3.01,2.22h12.41
		c5.9,0,7.8,2.04,7.8,6.81V82.59z M315.49,68.01h-11.57v21.44h-5.08V68.01h-11.6v-5.08h28.25V68.01z M165.28,63.04
		c-1.31,0-1.99,0.23-2.66,1.08l-14.4,19.13l-14.34-19.02c-0.61-0.91-1.31-1.2-2.63-1.2c-1.81,0-3.13,0.7-3.13,2.28v24.25h5.08V71.78
		l12.53,16.62c0.58,0.76,1.34,1.17,2.48,1.17c1.14,0,1.87-0.35,2.45-1.14l12.56-16.65v17.79l5.08,0.03V65.32
		C168.32,63.74,166.95,63.04,165.28,63.04z M115.62,63.04h-10.08c-7.8,0-9.32,2.42-9.32,9.11v8.3c0,6.75,1.52,9.11,9.32,9.11h10.08
		c7.89,0,9.35-2.4,9.35-9.14v-8.27C124.97,65.47,123.51,63.04,115.62,63.04z M119.89,80.28c0,3.42-1.02,4.24-4.5,4.24h-9.55
		c-3.74,0-4.56-0.82-4.56-4.24v-7.86c0-3.33,0.82-4.32,4.56-4.32h9.58c3.48,0,4.47,0.99,4.47,4.32V80.28z M110.57,101.25h-40.6
		c-6.92,0-13.2-2.8-17.73-7.33c-4.56-4.56-7.36-10.84-7.36-17.76c0-13.85,11.25-25.09,25.09-25.09h40.6V40.78H70
		c-19.54,0-35.38,15.83-35.4,35.38v0.06c0,9.79,3.97,18.64,10.37,25.03S60.24,111.62,70,111.62h40.6L110.57,101.25z M93.42,89.6
		l-12.88-8.24l2.8,0.03c7.27,0,9.73-2.34,9.73-8.53v-1.81c0-6.37-2.22-8-9.64-8H62.61V89.6l5.08-0.03l-0.03-10.4L84.05,89.6H93.42z
		 M67.69,68.13h15.34c3.89,0,4.97,0.35,4.97,3.24v1.43c0,2.86-1.11,3.51-4.91,3.51H67.69V68.13z M93.42,89.6l-12.88-8.24l2.8,0.03
		c7.27,0,9.73-2.34,9.73-8.53v-1.81c0-6.37-2.22-8-9.64-8H62.61V89.6l5.08-0.03l-0.03-10.4L84.05,89.6H93.42z M67.69,68.13h15.34
		c3.89,0,4.97,0.35,4.97,3.24v1.43c0,2.86-1.11,3.51-4.91,3.51H67.69V68.13z M110.57,101.25h-40.6c-6.92,0-13.2-2.8-17.73-7.33
		c-4.56-4.56-7.36-10.84-7.36-17.76c0-13.85,11.25-25.09,25.09-25.09h40.6V40.78H70c-19.54,0-35.38,15.83-35.4,35.38v0.06
		c0,9.79,3.97,18.64,10.37,25.03S60.24,111.62,70,111.62h40.6L110.57,101.25z M115.62,63.04h-10.08c-7.8,0-9.32,2.42-9.32,9.11v8.3
		c0,6.75,1.52,9.11,9.32,9.11h10.08c7.89,0,9.35-2.4,9.35-9.14v-8.27C124.97,65.47,123.51,63.04,115.62,63.04z M119.89,80.28
		c0,3.42-1.02,4.24-4.5,4.24h-9.55c-3.74,0-4.56-0.82-4.56-4.24v-7.86c0-3.33,0.82-4.32,4.56-4.32h9.58c3.48,0,4.47,0.99,4.47,4.32
		V80.28z M165.28,63.04c-1.31,0-1.99,0.23-2.66,1.08l-14.4,19.13l-14.34-19.02c-0.61-0.91-1.31-1.2-2.63-1.2
		c-1.81,0-3.13,0.7-3.13,2.28v24.25h5.08V71.78l12.53,16.62c0.58,0.76,1.34,1.17,2.48,1.17c1.14,0,1.87-0.35,2.45-1.14l12.56-16.65
		v17.79l5.08,0.03V65.32C168.32,63.74,166.95,63.04,165.28,63.04z M165.28,63.04c-1.31,0-1.99,0.23-2.66,1.08l-14.4,19.13
		l-14.34-19.02c-0.61-0.91-1.31-1.2-2.63-1.2c-1.81,0-3.13,0.7-3.13,2.28v24.25h5.08V71.78l12.53,16.62
		c0.58,0.76,1.34,1.17,2.48,1.17c1.14,0,1.87-0.35,2.45-1.14l12.56-16.65v17.79l5.08,0.03V65.32
		C168.32,63.74,166.95,63.04,165.28,63.04z M115.62,63.04h-10.08c-7.8,0-9.32,2.42-9.32,9.11v8.3c0,6.75,1.52,9.11,9.32,9.11h10.08
		c7.89,0,9.35-2.4,9.35-9.14v-8.27C124.97,65.47,123.51,63.04,115.62,63.04z M119.89,80.28c0,3.42-1.02,4.24-4.5,4.24h-9.55
		c-3.74,0-4.56-0.82-4.56-4.24v-7.86c0-3.33,0.82-4.32,4.56-4.32h9.58c3.48,0,4.47,0.99,4.47,4.32V80.28z M110.57,101.25h-40.6
		c-6.92,0-13.2-2.8-17.73-7.33c-4.56-4.56-7.36-10.84-7.36-17.76c0-13.85,11.25-25.09,25.09-25.09h40.6V40.78H70
		c-19.54,0-35.38,15.83-35.4,35.38v0.06c0,9.79,3.97,18.64,10.37,25.03S60.24,111.62,70,111.62h40.6L110.57,101.25z M93.42,89.6
		l-12.88-8.24l2.8,0.03c7.27,0,9.73-2.34,9.73-8.53v-1.81c0-6.37-2.22-8-9.64-8H62.61V89.6l5.08-0.03l-0.03-10.4L84.05,89.6H93.42z
		 M67.69,68.13h15.34c3.89,0,4.97,0.35,4.97,3.24v1.43c0,2.86-1.11,3.51-4.91,3.51H67.69V68.13z"/>
</g>
</svg>
